# xmcd
#
# Track frame offsets:
#  150
#  21869
#  37428
#  51537
#  68654
#  89616
#  102185
#  118307
#  133136
#  145783
#  160446
#  191148
#
# Disc length: 2719 seconds
#
# Revision: 1
# Processed by: cddbd v1.5.1PL0 Copyright (c) Steve Scherf et al.
# Submitted via: Collectorz.com_Music_Collector 6.9
#
DISCID=be0a9d0c
DTITLE=Floyd Dixon - Fine Fine Thing
DYEAR=2005
DGENRE=Blues -  Blues Piano
TTITLE0=Love Oh Love
TTITLE1=Everything's Alright
TTITLE2=Love's The Key
TTITLE3=Fine Fine Thing
TTITLE4=My Wish
TTITLE5=Carmen
TTITLE6=The Blues
TTITLE7=Cottontail
TTITLE8=Think About the Good Things
TTITLE9=Ain't That Right
TTITLE10=Floyd's Groove
TTITLE11=Lil Boy Blue
EXTD=
EXTT0=
EXTT1=
EXTT2=
EXTT3=
EXTT4=
EXTT5=
EXTT6=
EXTT7=
EXTT8=
EXTT9=
EXTT10=
EXTT11=
PLAYORDER=
